<?xml version="1.0" encoding="iso-8859-1"?>
<!-- Uploaded to: SVG Repo, www.svgrepo.com, Generator: SVG Repo Mixer Tools -->
<svg height="800px" width="800px" version="1.1" id="Layer_1" xmlns="http://www.w3.org/2000/svg"
	 viewBox="0 0 512 512" xml:space="preserve">
<g transform="translate(0 -1020.36)">
	<g shape-rendering="auto" image-rendering="auto" color-rendering="auto" color-interpolation="sRGB">
		<path style="fill:#5A3392;" d="M199.946,1020.36c-44.182,0-79.969,35.787-79.969,79.969v166h16.063v50h-16.063v72.063
			c0,44.182,35.787,79.969,79.969,79.969h48.062c44.181,0,79.969-35.787,79.969-79.969V1222.36h-15.969v-50h15.969v-72.031
			c0-44.182-35.788-79.968-79.969-79.968L199.946,1020.36L199.946,1020.36z"/>
		<path style="fill:#29A3EC;" d="M199.937,1036.312h48.071c35.594,0,64.015,28.423,64.015,64.017v288.07
			c0,35.598-28.421,64.016-64.015,64.016h-48.071c-35.595,0-63.898-28.42-63.898-64.016v-288.07
			C136.039,1064.735,164.342,1036.313,199.937,1036.312L199.937,1036.312z"/>
		<path style="fill:#3CDEF6;" d="M201.577,1044.364h44.798c33.169,0,59.656,27.322,59.656,61.537v276.924
			c0,34.219-26.487,61.539-59.656,61.539h-44.798c-33.17,0-59.547-27.32-59.547-61.539v-276.924
			C142.031,1071.684,168.407,1044.363,201.577,1044.364L201.577,1044.364z"/>
		<g>
			<path style="fill:#5A3392;" d="M167.22,1116.391c-4.117,0.412-7.241,3.895-7.205,8.031v39.922
				c-0.017,4.418,3.552,8.014,7.97,8.031c0.02,0,0.041,0,0.061,0h31.89c4.419,0.018,8.014-3.551,8.031-7.971c0-0.02,0-0.041,0-0.061
				v-39.922c0.017-4.418-3.552-8.014-7.97-8.031c-0.02,0-0.041,0-0.061,0h-31.89c-0.276-0.014-0.553-0.014-0.828,0H167.22z"/>
			<path style="fill:#5A3392;" d="M247.181,1116.391c-4.117,0.412-7.241,3.895-7.205,8.031v39.922
				c-0.017,4.418,3.552,8.014,7.97,8.031c0.02,0,0.041,0,0.061,0h32.008c4.419,0.018,8.014-3.551,8.031-7.971
				c0-0.02,0-0.041,0-0.061v-39.922c0.017-4.418-3.552-8.014-7.97-8.031c-0.02,0-0.041,0-0.061,0h-32.008
				c-0.276-0.014-0.553-0.014-0.828,0H247.181z"/>
			<path style="fill:#5A3392;" d="M199.937,1140.366v15.945h48.071v-15.945H199.937z"/>
		</g>
		<g>
			<path style="fill:#FFFFFF;" d="M191.078,1212.296c-4.07,0.469-7.129,3.936-7.086,8.031v48.07
				c-0.372,4.402,2.896,8.273,7.299,8.646c4.403,0.371,8.274-2.896,8.646-7.299c0.038-0.449,0.038-0.898,0-1.348v-48.07
				c0.042-4.418-3.505-8.035-7.924-8.076C191.701,1212.247,191.388,1212.262,191.078,1212.296L191.078,1212.296z"/>
			<path style="fill:#FFFFFF;" d="M223.086,1212.296c-4.07,0.469-7.129,3.936-7.087,8.031v48.07
				c-0.37,4.402,2.899,8.273,7.302,8.643c4.403,0.371,8.273-2.898,8.643-7.303c0.038-0.445,0.038-0.895,0-1.34v-48.07
				c0.042-4.418-3.505-8.035-7.924-8.076C223.709,1212.247,223.396,1212.262,223.086,1212.296z"/>
			<path style="fill:#FFFFFF;" d="M255.094,1212.296c-4.07,0.469-7.129,3.936-7.087,8.031v48.07
				c-0.372,4.402,2.896,8.273,7.299,8.646c4.403,0.371,8.274-2.896,8.646-7.299c0.038-0.449,0.038-0.898,0-1.348v-48.07
				c0.042-4.418-3.505-8.035-7.924-8.076C255.716,1212.247,255.404,1212.262,255.094,1212.296z"/>
			<path style="fill:#FFFFFF;" d="M279.425,1388.28c-2.359,0.176-4.52,1.387-5.902,3.307c-5.062,6.826-7.411,10.871-12.992,13.584
				c-4.001,1.879-5.721,6.645-3.842,10.646c1.879,4,6.645,5.721,10.646,3.842c0.055-0.025,0.111-0.053,0.165-0.08
				c9.702-4.717,14.309-12.234,18.898-18.424c2.706-3.492,2.069-8.518-1.424-11.225c-1.578-1.223-3.555-1.811-5.544-1.65H279.425z"
				/>
		</g>
	</g>
	<path style="fill:#FFFFFF;" d="M231.989,1428.37c0,4.418,3.582,8,8,8c4.418,0,8-3.582,8-8l0,0c0-4.418-3.582-8-8-8c0,0,0,0,0,0
		C235.571,1420.37,231.989,1423.952,231.989,1428.37z"/>
	<g shape-rendering="auto" image-rendering="auto" color-rendering="auto" color-interpolation="sRGB">
		<path style="fill:#5A3392;" d="M199.937,1332.415v15.943h48.071v-15.943H199.937z"/>
		<path style="fill:#EE746C;" d="M175.992,1132.378h16v24h-16V1132.378z"/>
		<path style="fill:#FB9761;" d="M175.992,1132.378h10.56v24h-10.56V1132.378z"/>
		<path style="fill:#EE746C;" d="M256.011,1132.378h16v24h-16V1132.378z"/>
		<path style="fill:#FB9761;" d="M256.011,1132.378h10.56v24h-10.56V1132.378z"/>
		<path style="fill:#5A3392;" d="M167.22,1316.35c-4.117,0.412-7.241,3.895-7.205,8.031v40.039c0.048,4.396,3.634,7.932,8.031,7.914
			h31.89c4.397,0.018,7.984-3.518,8.031-7.914v-40.039c0.017-4.418-3.552-8.014-7.97-8.031c-0.02,0-0.041,0-0.061,0h-31.89
			c-0.276-0.014-0.553-0.014-0.828,0H167.22z"/>
		<path style="fill:#EE746C;" d="M175.992,1332.339h16v24h-16V1332.339z"/>
		<path style="fill:#FB9761;" d="M175.992,1332.339h10.56v24h-10.56V1332.339z"/>
		<path style="fill:#5A3392;" d="M247.181,1316.35c-4.117,0.412-7.241,3.895-7.205,8.031v40.039
			c0.048,4.396,3.634,7.932,8.031,7.914h32.008c4.397,0.018,7.984-3.518,8.031-7.914v-40.039c0.017-4.418-3.552-8.014-7.97-8.031
			c-0.02,0-0.041,0-0.061,0h-32.008c-0.276-0.014-0.553-0.014-0.828,0H247.181z"/>
		<path style="fill:#EE746C;" d="M256.011,1332.339h16v24h-16V1332.339z"/>
		<path style="fill:#FB9761;" d="M256.011,1332.339h10.56v24h-10.56V1332.339z"/>
	</g>
	<g>
		<path style="fill:#5A3392;" d="M312.023,1191.376h16v16h-16V1191.376z"/>
		<path style="fill:#5A3392;" d="M120.039,1283.34h16v16h-16V1283.34z"/>
	</g>
</g>
</svg>